<?xml version="1.0" standalone="no"?>
<!DOCTYPE svg PUBLIC "-//W3C//DTD SVG 1.1//EN" "http://www.w3.org/Graphics/SVG/1.1/DTD/svg11.dtd" >
<!--
2013-9-30: Created.
-->
<svg>
<metadata>
Created by iconfont
</metadata>
<defs>

<font id="iconfont" horiz-adv-x="1024" >
  <font-face
    font-family="iconfont"
    font-weight="500"
    font-stretch="normal"
    units-per-em="1024"
    ascent="896"
    descent="-128"
  />
    <missing-glyph />
    
    <glyph glyph-name="quanbu_huaban1" unicode="&#58990;" d="M412.16 829.44h-281.6c-35.84 0-66.56-30.72-66.56-66.56v-281.6c0-35.84 30.72-66.56 66.56-66.56h281.6c35.84 0 66.56 30.72 66.56 66.56v281.6c2.56 38.4-28.16 66.56-66.56 66.56z m-7.68-337.92H140.8V752.64h261.12v-261.12zM890.88 829.44h-281.6c-35.84 0-66.56-30.72-66.56-66.56v-281.6c0-35.84 30.72-66.56 66.56-66.56h281.6c35.84 0 66.56 30.72 66.56 66.56v281.6c2.56 38.4-28.16 66.56-66.56 66.56z m-7.68-337.92H619.52V752.64h261.12v-261.12zM412.16 353.28h-281.6c-35.84 0-66.56-30.72-66.56-66.56v-281.6c0-35.84 30.72-66.56 66.56-66.56h281.6c35.84 0 66.56 30.72 66.56 66.56v281.6c2.56 35.84-28.16 66.56-66.56 66.56z m-7.68-340.48H140.8V276.48h261.12v-263.68zM890.88-64h-281.6c-35.84 0-66.56 30.72-66.56 66.56v281.6c0 35.84 30.72 66.56 66.56 66.56h281.6c35.84 0 66.56-30.72 66.56-66.56v-281.6c2.56-35.84-28.16-66.56-66.56-66.56z m-271.36 76.8h261.12V276.48H619.52v-263.68z"  horiz-adv-x="1024" />

    
    <glyph glyph-name="anzhuo2" unicode="&#58989;" d="M184.32 542.72C153.6 542.72 128 519.68 128 486.4v-232.96c0-30.72 25.6-56.32 56.32-56.32 30.72 0 56.32 25.6 56.32 56.32V486.4c0 30.72-25.6 56.32-56.32 56.32z m76.8-373.76c0-33.28 25.6-58.88 58.88-58.88h40.96v-122.88c0-30.72 25.6-56.32 56.32-53.76 30.72 0 53.76 25.6 53.76 53.76v122.88h76.8v-122.88c0-30.72 25.6-56.32 56.32-53.76 30.72 0 53.76 25.6 53.76 53.76v122.88h40.96c33.28 0 58.88 25.6 58.88 58.88V532.48H261.12v-363.52zM634.88 752.64l38.4 71.68c2.56 2.56 0 7.68-2.56 10.24-2.56 2.56-7.68 0-10.24-2.56l-38.4-71.68c-33.28 15.36-71.68 23.04-110.08 23.04s-74.24-7.68-110.08-23.04l-38.4 71.68c-2.56 2.56-7.68 5.12-10.24 2.56-2.56-2.56-5.12-7.68-2.56-10.24l38.4-71.68c-76.8-38.4-128-115.2-128-202.24h504.32c-2.56 87.04-51.2 166.4-130.56 202.24z m-238.08-110.08c-12.8 0-20.48 10.24-20.48 20.48 0 12.8 10.24 20.48 20.48 20.48 12.8 0 20.48-10.24 20.48-20.48s-7.68-20.48-20.48-20.48z m230.4 0c-12.8 0-20.48 10.24-20.48 20.48 0 12.8 10.24 20.48 20.48 20.48 12.8 0 20.48-10.24 20.48-20.48s-10.24-20.48-20.48-20.48z m212.48-99.84c-30.72 0-56.32-25.6-56.32-56.32v-232.96c0-30.72 25.6-56.32 56.32-56.32 30.72 0 56.32 25.6 56.32 56.32V486.4c0 30.72-25.6 56.32-56.32 56.32z"  horiz-adv-x="1024" />

    
    <glyph glyph-name="google-01" unicode="&#58988;" d="M591.36 384L166.4 819.2C143.36 806.4 128 783.36 128 757.76v-747.52c0-25.6 12.8-48.64 35.84-61.44l427.52 435.2s2.56 0 0 0z m35.84 35.84l99.84 102.4v2.56L261.12 796.16V793.6l366.08-373.76z m245.76 17.92l-97.28 58.88-112.64-112.64v-2.56l107.52-110.08v2.56L870.4 332.8c15.36 12.8 23.04 33.28 20.48 53.76 5.12 17.92-2.56 38.4-17.92 51.2z m-245.76-89.6L258.56-28.16v-2.56l468.48 271.36-99.84 107.52z"  horiz-adv-x="1024" />

    
    <glyph glyph-name="testflight_huaban1" unicode="&#58987;" d="M512 819.2C271.36 819.2 76.8 624.64 76.8 384s194.56-435.2 435.2-435.2 435.2 194.56 435.2 435.2S752.64 819.2 512 819.2z m0-396.8c20.48 0 38.4-17.92 38.4-38.4s-17.92-38.4-38.4-38.4-38.4 17.92-38.4 38.4 17.92 38.4 38.4 38.4zM143.36 240.64c-79.36 202.24 20.48 432.64 225.28 512 25.6 10.24 53.76 17.92 79.36 23.04l10.24-335.36c-12.8-12.8-20.48-25.6-23.04-43.52L143.36 240.64zM512-12.8c-117.76 0-230.4 53.76-304.64 143.36L491.52 307.2c15.36-5.12 33.28-5.12 48.64 2.56l281.6-174.08c-76.8-94.72-189.44-148.48-309.76-148.48z m76.8 417.28c-5.12 15.36-12.8 30.72-25.6 40.96l10.24 330.24c215.04-33.28 363.52-232.96 332.8-450.56-5.12-28.16-10.24-53.76-20.48-79.36L588.8 404.48z"  horiz-adv-x="1024" />

    
    <glyph glyph-name="gouxuan_huaban1" unicode="&#58986;" d="M0-128h887.466667c75.093333 0 136.533333 61.44 136.533333 136.533333V896L0-128z m921.6 430.08l-266.24-266.24L512 179.2c-13.653333 13.653333-13.653333 34.133333 0 47.786667s34.133333 13.653333 47.786667 0l95.573333-95.573334 218.453333 218.453334c13.653333 13.653333 34.133333 13.653333 47.786667 0s13.653333-34.133333 0-47.786667z"  horiz-adv-x="1024" />

    
    <glyph glyph-name="shandianhui_huaban1" unicode="&#58985;" d="M373.871815 297.444531h-204.634349c-28.137223 0-46.042728 25.579294-35.811011 51.158587l204.634349 524.375518c2.557929 12.789647 17.905505 23.021364 33.253081 23.021364H716.634348c28.137223 0 46.042728-28.137223 35.811011-51.158587l-120.222679-286.488088h225.097783c33.253082 0 51.158587-38.36894 28.137223-61.390305L335.502874-114.382096c-25.579294-30.695152-76.737881-5.115859-66.506163 33.253082l104.875104 378.573545z"  horiz-adv-x="1024" />

    
    <glyph glyph-name="shandiancheng_huaban1" unicode="&#58984;" d="M373.871815 297.444531h-204.634349c-28.137223 0-46.042728 25.579294-35.811011 51.158587l204.634349 524.375518c2.557929 12.789647 17.905505 23.021364 33.253081 23.021364H716.634348c28.137223 0 46.042728-28.137223 35.811011-51.158587l-120.222679-286.488088h225.097783c33.253082 0 51.158587-38.36894 28.137223-61.390305L335.502874-114.382096c-25.579294-30.695152-76.737881-5.115859-66.506163 33.253082l104.875104 378.573545z"  horiz-adv-x="1024" />

    
    <glyph glyph-name="shandiancheng" unicode="&#58983;" d=""  horiz-adv-x="1024" />

    
    <glyph glyph-name="suanlika-hui_huaban1" unicode="&#58982;" d="M643.072 285.696L452.608 343.04 409.6 198.656l190.464-57.344c18.432-6.144 38.912-4.096 56.32 6.144 17.408 9.216 30.72 25.6 35.84 45.056 12.288 38.912-10.24 80.896-49.152 93.184zM704.512 510.976L514.048 568.32 471.04 423.936l190.464-57.344c38.912-12.288 80.896 11.264 92.16 50.176 6.144 19.456 3.072 39.936-6.144 57.344-8.192 18.432-24.576 30.72-43.008 36.864zM942.08 896H81.92C36.864 896 0 859.136 0 814.08v-860.16c0-45.056 36.864-81.92 81.92-81.92h860.16c45.056 0 81.92 36.864 81.92 81.92V814.08c0 45.056-36.864 81.92-81.92 81.92z m-89.088-500.736c-13.312-46.08-45.056-81.92-83.968-102.4 21.504-38.912 28.672-86.016 14.336-132.096-13.312-44.032-41.984-79.872-81.92-101.376-25.6-13.312-53.248-20.48-80.896-20.48-16.384 0-32.768 2.048-49.152 7.168l-25.6 7.168-28.672-99.328-89.088 26.624 29.696 100.352-76.8 22.528-29.696-100.352-87.04 25.6-22.528 7.168 28.672 96.256L163.84 163.84l29.696 100.352 106.496-31.744L409.6 600.064l-106.496 31.744 29.696 100.352 106.496-31.744L473.088 814.08l87.04-25.6 21.504-6.144-34.816-117.76 76.8-22.528 34.816 117.76 90.112-26.624-34.816-117.76 24.576-7.168c44.032-13.312 79.872-41.984 101.376-81.92 21.504-41.984 26.624-88.064 13.312-131.072z"  horiz-adv-x="1024" />

    
    <glyph glyph-name="suanlika-cheng_huaban1" unicode="&#58980;" d="M643.072 285.696L452.608 343.04 409.6 198.656l190.464-57.344c18.432-6.144 38.912-4.096 56.32 6.144 17.408 9.216 30.72 25.6 35.84 45.056 12.288 38.912-10.24 80.896-49.152 93.184zM704.512 510.976L514.048 568.32 471.04 423.936l190.464-57.344c38.912-12.288 80.896 11.264 92.16 50.176 6.144 19.456 3.072 39.936-6.144 57.344-8.192 18.432-24.576 30.72-43.008 36.864zM942.08 896H81.92C36.864 896 0 859.136 0 814.08v-860.16c0-45.056 36.864-81.92 81.92-81.92h860.16c45.056 0 81.92 36.864 81.92 81.92V814.08c0 45.056-36.864 81.92-81.92 81.92z m-89.088-500.736c-13.312-46.08-45.056-81.92-83.968-102.4 21.504-38.912 28.672-86.016 14.336-132.096-13.312-44.032-41.984-79.872-81.92-101.376-25.6-13.312-53.248-20.48-80.896-20.48-16.384 0-32.768 2.048-49.152 7.168l-25.6 7.168-28.672-99.328-89.088 26.624 29.696 100.352-76.8 22.528-29.696-100.352-87.04 25.6-22.528 7.168 28.672 96.256L163.84 163.84l29.696 100.352 106.496-31.744L409.6 600.064l-106.496 31.744 29.696 100.352 106.496-31.744L473.088 814.08l87.04-25.6 21.504-6.144-34.816-117.76 76.8-22.528 34.816 117.76 90.112-26.624-34.816-117.76 24.576-7.168c44.032-13.312 79.872-41.984 101.376-81.92 21.504-41.984 26.624-88.064 13.312-131.072z"  horiz-adv-x="1024" />

    
    <glyph glyph-name="anzhuo_huaban1" unicode="&#58979;" d="M601.6 384L120.32 878.08C92.16 865.28 76.8 837.12 76.8 808.96v-847.36c0-28.16 15.36-56.32 40.96-69.12L601.6 384s2.56 0 0 0z m40.96 38.4l115.2 115.2v2.56L227.84 852.48v-2.56l414.72-427.52c-2.56 2.56 0 0 0 0z m276.48 20.48l-110.08 66.56h-2.56L683.52 384v-2.56l122.88-122.88h2.56v2.56l112.64 66.56c17.92 15.36 25.6 38.4 23.04 58.88 2.56 20.48-7.68 43.52-25.6 56.32z m-276.48-99.84L225.28-81.92v-2.56l529.92 307.2-112.64 120.32z"  horiz-adv-x="1024" />

    
    <glyph glyph-name="pingguo_huaban11" unicode="&#58981;" d="M645.12 716.8c38.4 40.96 56.32 97.28 51.2 153.6-56.32-5.12-110.08-30.72-148.48-71.68-38.4-38.4-56.32-94.72-53.76-148.48 58.88-2.56 112.64 23.04 151.04 66.56zM785.92 378.88c2.56 76.8 43.52 145.92 110.08 181.76-43.52 58.88-112.64 92.16-184.32 94.72-79.36 7.68-153.6-43.52-192-43.52-40.96 0-99.84 43.52-166.4 40.96-84.48-2.56-163.84-46.08-207.36-120.32-89.6-145.92-23.04-363.52 61.44-481.28 43.52-58.88 92.16-122.88 158.72-120.32 64 2.56 87.04 38.4 163.84 38.4 76.8 0 99.84-38.4 166.4-38.4 69.12 2.56 112.64 58.88 153.6 117.76 30.72 40.96 53.76 87.04 69.12 135.68-76.8 30.72-130.56 107.52-133.12 194.56z"  horiz-adv-x="1024" />

    
    <glyph glyph-name="jiaobiao_huaban1" unicode="&#58978;" d="M0 896l1024-1024V638.335501L766.335501 896z"  horiz-adv-x="1024" />

    
    <glyph glyph-name="shipin_huaban1" unicode="&#58977;" d="M765.952 617.472V723.968H40.96v-679.936h724.992v106.496L983.04 39.936V728.064l-217.088-110.592z m-81.92-43.008v-450.56H122.88V642.048h561.152v-67.584zM901.12 175.104l-135.168 69.632V525.312l135.168 69.632v-419.84z"  horiz-adv-x="1024" />

    
    <glyph glyph-name="tongzhi_huaban1" unicode="&#58976;" d="M673.28 860.16c-30.72 15.36-66.56 12.8-94.72-7.68l-263.68-204.8H130.56c-48.64 0-89.6-40.96-89.6-89.6v-350.72c0-48.64 40.96-89.6 89.6-89.6h184.32l266.24-202.24c15.36-12.8 35.84-17.92 53.76-17.92 12.8 0 28.16 2.56 40.96 10.24 30.72 15.36 48.64 46.08 48.64 79.36V778.24c0 35.84-20.48 66.56-51.2 81.92zM117.76 209.92V558.08c0 7.68 5.12 12.8 12.8 12.8h158.72v-376.32H130.56c-7.68 2.56-12.8 7.68-12.8 15.36z m529.92-220.16c0-7.68-5.12-10.24-7.68-10.24-2.56-2.56-7.68-2.56-12.8 0l-261.12 197.12V591.36l261.12 197.12c5.12 5.12 10.24 2.56 12.8 0 2.56-2.56 7.68-5.12 7.68-10.24v-788.48zM849.92 153.6l-38.4 66.56c58.88 33.28 94.72 97.28 94.72 163.84 0 69.12-35.84 130.56-94.72 163.84l38.4 66.56c81.92-46.08 133.12-135.68 133.12-232.96 0-92.16-51.2-181.76-133.12-227.84z"  horiz-adv-x="1024" />

    
    <glyph glyph-name="rili_huaban1" unicode="&#58975;" d="M803.031579 766.652632V828.631579h-86.231579v-59.284211h-377.263158V828.631579H253.305263v-59.284211h-188.631579v-865.010526h894.652632v862.31579h-156.294737z m70.063158-778.778948H150.905263V421.726316h722.189474v-433.852632z m0 520.084211H150.905263V680.421053h102.4v-83.536842h86.231579V680.421053h374.568421v-83.536842h86.231579V680.421053h72.757895v-172.463158zM501.221053 332.8h299.115789v-86.231579H501.221053z"  horiz-adv-x="1024" />

    
    <glyph glyph-name="rili" unicode="&#58974;" d=""  horiz-adv-x="1024" />

    
    <glyph glyph-name="fuzhi_huaban1" unicode="&#58973;" d="M885.76 896H340.48C266.24 896 204.8 834.56 204.8 757.76V691.2H135.68C61.44 691.2 0 629.76 0 552.96v-545.28C0-66.56 61.44-128 135.68-128h545.28c74.24 0 135.68 61.44 135.68 135.68V76.8h69.12c74.24 0 135.68 61.44 135.68 135.68V757.76c2.56 76.8-58.88 138.24-135.68 138.24z m-135.68-888.32c0-40.96-28.16-69.12-69.12-69.12H135.68c-40.96 0-69.12 28.16-69.12 69.12V552.96c0 40.96 28.16 69.12 69.12 69.12h545.28c40.96 0 69.12-28.16 69.12-69.12v-545.28z m204.8 204.8c0-40.96-28.16-69.12-69.12-69.12H819.2v409.6c0 74.24-61.44 135.68-135.68 135.68h-409.6V757.76c0 40.96 28.16 69.12 69.12 69.12h545.28c40.96 0 69.12-28.16 69.12-69.12v-545.28zM581.12 192H238.08c-20.48 0-33.28-12.8-33.28-33.28 0-17.92 12.8-30.72 33.28-30.72h340.48c20.48 0 33.28 12.8 33.28 30.72 2.56 20.48-10.24 33.28-30.72 33.28zM581.12 384H238.08c-20.48 0-33.28-12.8-33.28-33.28 0-17.92 12.8-30.72 33.28-30.72h340.48c20.48 0 33.28 12.8 33.28 30.72 2.56 20.48-10.24 33.28-30.72 33.28z"  horiz-adv-x="1024" />

    
    <glyph glyph-name="icon_gerenzhongxin" unicode="&#58954;" d="M659.456 334.848c57.344 45.056 96.256 114.688 96.256 192.512 0 135.168-108.544 243.712-243.712 243.712S268.288 662.528 268.288 527.36c0-77.824 36.864-147.456 96.256-192.512C233.472 277.504 143.36 148.48 143.36-3.072h81.92c0 157.696 129.024 286.72 286.72 286.72s286.72-129.024 286.72-286.72h81.92c0 151.552-90.112 280.576-221.184 337.92zM512 365.568c-88.064 0-161.792 71.68-161.792 161.792s71.68 161.792 161.792 161.792c88.064 0 161.792-71.68 161.792-161.792s-73.728-161.792-161.792-161.792z"  horiz-adv-x="1024" />

    
    <glyph glyph-name="icon_cha" unicode="&#58955;" d="M815.104 629.76L757.76 687.104l-245.76-245.76-245.76 245.76-57.344-57.344 245.76-245.76-245.76-245.76 57.344-57.344 245.76 245.76 245.76-245.76 57.344 57.344-245.76 245.76z"  horiz-adv-x="1024" />

    
    <glyph glyph-name="icon_daohangshouqi" unicode="&#58956;" d="M122.88 711.68h778.24v-81.92H122.88zM122.88 424.96h778.24v-81.92H122.88zM122.88 138.24h778.24v-81.92H122.88z"  horiz-adv-x="1024" />

    
    <glyph glyph-name="icon_shouyi" unicode="&#58959;" d="M482.742857 464.457143l201.142857-215.771429 288.914286 226.742857-43.885714 58.514286-237.714286-186.514286-201.142857 219.428572-288.914286-263.314286 51.2-54.857143zM138.971429 764.342857h-73.142858v-793.6h906.971429v73.142857H138.971429z"  horiz-adv-x="1024" />

    
    <glyph glyph-name="icon_shangxiajiantou" unicode="&#58960;" d="M512 124.342857l-402.285714 402.285714L190.171429 603.428571l321.828571-321.828571L833.828571 603.428571l80.457143-76.8z"  horiz-adv-x="1024" />

    
    <glyph glyph-name="icon_suanlijiasu" unicode="&#58961;" d="M512 384m-512 0a512 512 0 1 1 1024 0 512 512 0 1 1-1024 0ZM316.235294 206.305882V615.905882h-60.235294v-469.835294h512v60.235294zM614.4 335.811765l-114.447059 120.470588-126.494117-114.447059L331.294118 384l171.670588 159.623529 117.458823-126.494117 129.505883 99.388235 36.141176-45.176471z"  horiz-adv-x="1024" />

    
    <glyph glyph-name="icon_jisuanqi" unicode="&#58962;" d=""  horiz-adv-x="1024" />

    
    <glyph glyph-name="icon_goumai101" unicode="&#58963;" d="M843.294118 474.352941h-174.682353v60.235294h78.305882c-30.117647 48.188235-72.282353 84.329412-126.494118 105.411765-141.552941 60.235294-304.188235-6.023529-364.423529-147.576471l-54.211765 24.094118c72.282353 171.670588 271.058824 252.988235 442.729412 180.705882 81.317647-33.129412 144.564706-99.388235 180.705882-180.705882L843.294118 474.352941zM512 46.682353c-45.176471 0-87.341176 9.035294-129.505882 27.105882-81.317647 33.129412-144.564706 99.388235-180.705883 180.705883L183.717647 293.647059h174.682353v-60.235294H280.094118c30.117647-48.188235 72.282353-84.329412 126.494117-105.411765 141.552941-60.235294 304.188235 6.023529 364.42353 147.576471l54.211764-24.094118c-54.211765-126.494118-180.705882-204.8-313.223529-204.8z"  horiz-adv-x="1024" />

    
    <glyph glyph-name="icon_yishixiaofuben" unicode="&#58964;" d=""  horiz-adv-x="1024" />

    
    <glyph glyph-name="icon_xiangqing" unicode="&#58965;" d="M84.114286 866.742857v-954.514286l427.885714 182.857143L939.885714-91.428571V866.742857H84.114286z m782.628571-844.8L512 175.542857l-354.742857-153.6V793.6h705.828571v-771.657143zM296.228571 640H731.428571v-73.142857H296.228571zM296.228571 420.571429H731.428571v-73.142858H296.228571z"  horiz-adv-x="1024" />

    
    <glyph glyph-name="icon_zuoyoujiantou" unicode="&#58966;" d="M331.093333 855.04L259.413333 783.36 655.36 384 259.413333-15.36l71.68-71.68L802.133333 384z"  horiz-adv-x="1024" />

    
    <glyph glyph-name="icon_BTC_" unicode="&#58967;" d="M81.92 896h860.16c45.056 0 81.92-36.864 81.92-81.92v-860.16c0-45.056-36.864-81.92-81.92-81.92H81.92c-45.056 0-81.92 36.864-81.92 81.92V814.08c0 45.056 36.864 81.92 81.92 81.92zM839.68 524.288c-21.504 39.936-57.344 69.632-101.376 81.92l-24.576 7.168L748.544 732.16l-90.112 26.624-34.816-117.76-76.8 22.528 34.816 117.76-21.504 6.144L473.088 814.08l-33.792-113.664L332.8 732.16l-29.696-100.352L409.6 600.064 300.032 232.448l-106.496 31.744-29.696-100.352 106.496-31.744-28.672-96.256 21.504-6.144 87.04-25.6 29.696 100.352 76.8-22.528-29.696-100.352 89.088-26.624 29.696 100.352 25.6-7.168c15.36-5.12 32.768-7.168 49.152-7.168 27.648 0 55.296 7.168 80.896 20.48 39.936 21.504 68.608 57.344 81.92 101.376 13.312 46.08 7.168 93.184-14.336 132.096 38.912 20.48 70.656 56.32 83.968 102.4 13.312 40.96 8.192 87.04-13.312 126.976m-91.136-50.176c9.216-17.408 11.264-37.888 6.144-57.344-11.264-39.936-53.248-62.464-92.16-50.176L471.04 423.936 514.048 568.32l190.464-57.344c18.432-6.144 34.816-18.432 44.032-36.864m-55.296-281.6c-5.12-19.456-18.432-34.816-35.84-45.056-17.408-9.216-37.888-11.264-56.32-6.144L409.6 198.656 452.608 343.04l190.464-57.344c38.912-12.288 61.44-54.272 50.176-93.184"  horiz-adv-x="1024" />

    
    <glyph glyph-name="icon_wenhao" unicode="&#58968;" d="M512 896C230.4 896 0 665.6 0 384s230.4-512 512-512 512 230.4 512 512S793.6 896 512 896z m29.866667-755.2c-8.533333-8.533333-17.066667-12.8-29.866667-12.8-12.8 0-21.333333 4.266667-29.866667 12.8-8.533333 8.533333-12.8 17.066667-12.8 29.866667 0 12.8 4.266667 21.333333 12.8 29.866666 8.533333 8.533333 17.066667 12.8 29.866667 12.8 12.8 0 21.333333-4.266667 29.866667-12.8 8.533333-8.533333 12.8-17.066667 12.8-29.866666 0-12.8-4.266667-21.333333-12.8-29.866667z m110.933333 294.4L588.8 384c-12.8-8.533333-21.333333-21.333333-29.866667-34.133333-8.533333-12.8-12.8-29.866667-12.8-42.666667v-8.533333h-81.066666v12.8c0 21.333333 4.266667 42.666667 12.8 59.733333 25.6 29.866667 51.2 59.733333 85.333333 81.066667l12.8 12.8c25.6 25.6 25.6 72.533333 0 98.133333-17.066667 12.8-38.4 21.333333-64 17.066667-25.6 4.266667-55.466667-8.533333-72.533333-25.6-12.8-17.066667-21.333333-42.666667-17.066667-68.266667H341.333333c-4.266667 42.666667 17.066667 85.333333 46.933334 110.933333 38.4 29.866667 85.333333 42.666667 132.266666 42.666667 42.666667 4.266667 85.333333-8.533333 119.466667-34.133333 25.6-21.333333 42.666667-55.466667 42.666667-93.866667 0-25.6-8.533333-55.466667-29.866667-76.8z"  horiz-adv-x="1024" />

    
    <glyph glyph-name="icon_yishixiao" unicode="&#58969;" d="M265.865466 810.264844C30.560851 674.398581-50.171276 373.129911 85.694987 137.825297S522.829919-178.211445 758.134534-42.345182 1074.171276 394.78975 938.305013 630.094365 501.170081 946.131107 265.865466 810.264844zM256.020085 827.001992C501.170081 968.775484 814.253208 885.089742 955.042161 639.939746s57.103212-558.233123-187.062246-699.022076-558.233123-57.103212-699.022076 187.062245S10.870089 686.213039 256.020085 827.001992zM295.40161 759.068861C88.648601 639.939746 16.777317 374.114449 136.89097 167.361441S521.845381-111.262852 728.59839 8.850801C935.351399 127.979915 1007.222683 393.805212 887.10903 600.558221 767.979915 807.311229 502.154619 879.182513 295.40161 759.068861z m-9.845381 16.737148C502.154619 900.842352 778.809835 827.001992 903.846178 610.403602 1028.882522 393.805212 955.042161 117.149996 738.443771-7.886347 521.845381-132.922691 245.190165-59.08233 120.153822 157.51606S68.957839 650.769666 285.556229 775.806009zM238.298398 241.201801l34.458835-60.056826c4.922691-8.860843 12.798996-10.829919 21.659839-5.907229l102.391966 59.072288c4.922691 2.953614 7.876305 6.891767 9.845381 10.82992 1.969076 5.907229-2.953614 20.675301-14.768072 44.304216l16.737149 3.938152c12.798996-26.58253 17.721686-43.319678 15.75261-52.180521-1.969076-6.891767-7.876305-12.798996-15.75261-18.706224l-111.25281-63.994979c-16.737148-9.845381-29.536144-5.907229-39.381525 10.829919l-62.025903 107.314657 14.768072 8.860843 17.721687-30.520682 113.221885 65.964055-28.551606 53.165059-136.8508-78.76305-7.876306 14.768072 151.618873 87.623894 47.257831-81.716666-128.974496-74.824898zM417.484339 454.846577c1.969076-10.829919 3.938153-22.644377 3.938152-32.489759l41.350602 23.628915-20.675301 36.427911 14.768072 8.860844 20.675301-35.443373 68.91767 39.381525 7.876305-14.768072-68.91767-39.381525 7.876305-13.783534c4.922691-9.845381 9.845381-19.690763 13.783534-29.536144l84.67028 49.226907L600.608432 433.186738l-75.809436-44.304216c26.58253-23.628915 66.948593-31.50522 119.129114-22.644378l-0.984538-17.721686c-56.118674-6.891767-98.453814 2.953614-128.974496 30.520682 3.938153-15.75261 4.922691-30.520682 3.938153-44.304216-2.953614-26.58253-17.721686-55.134136-44.304216-83.685742l-14.768072 7.876306c25.597992 29.536144 40.366064 56.118674 43.319678 79.747589 0.984538 10.829919-0.984538 23.628915-3.938153 35.443372l-75.809436-44.304216-7.876305 13.783534 78.76305 45.288755c-2.953614 9.845381-7.876305 19.690763-12.798995 29.536144l-7.876305 13.783534-49.226907-28.551606c0-16.737148-2.953614-31.50522-6.891767-44.304217l-18.706225 3.938153c8.860843 26.58253 9.845381 57.103212 2.953615 89.59297l16.737148 1.969077zM632.113653 563.145772l38.396987 22.644377 7.876305-13.783534-94.515661-55.134136-7.876305 13.783534 42.33514 24.613454c-6.891767 5.907229-14.768072 10.829919-22.644377 14.768072l13.783533 10.829919c6.891767-4.922691 14.768072-10.829919 22.644378-17.721686z m0-39.381526c1.969076-23.628915 0.984538-46.273292-1.969077-66.948593l-16.737148 1.969076c3.938153 19.690763 4.922691 40.366064 2.953614 63.994979l15.752611 0.984538z m48.242368-59.072288c-0.984538 11.814458-1.969076 24.613453-4.92269 37.412449l15.75261 1.969076c3.938153-14.768072 5.907229-29.536144 6.891767-43.319678 13.783534-2.953614 26.58253-6.891767 39.381525-11.814457l-3.938152-17.721687c-12.798996 4.922691-24.613453 7.876305-35.443373 11.814458-1.969076-26.58253-8.860843-51.195983-21.659839-73.84036l-16.737149 7.876305c12.798996 21.659839 19.690763 45.288754 21.659839 70.886746-13.783534 3.938153-26.58253 5.907229-39.381525 7.876305l2.953614 15.75261c11.814458-1.969076 23.628915-3.938153 35.443373-6.891767z m-34.458834 64.979517l3.938152 13.783534c11.814458-1.969076 26.58253-5.907229 45.288754-12.798996l-3.938152-15.75261c-15.75261 6.891767-30.520682 11.814458-45.288754 14.768072z m72.855822 3.938153c0.984538-9.845381 0-18.706225 0-26.58253l-15.752611 5.907229c0.984538 30.520682-5.907229 66.948593-23.628915 108.299195l15.75261 5.907228c4.922691-12.798996 8.860843-23.628915 12.798996-35.443372l57.103212 33.474296 7.876305-14.768072-17.721686-9.845381c17.721686-33.474297 26.58253-64.979517 26.582529-96.484738 22.644377-11.814458 45.288754-18.706225 66.948594-18.706224l-0.984539-17.721687c-22.644377 0.984538-44.304216 7.876305-66.948593 19.690763-2.953614-24.613453-10.829919-49.226907-24.613453-72.855822l-15.75261 8.860843c14.768072 23.628915 23.628915 48.242369 25.597991 73.840361-15.75261 8.860843-31.50522 21.659839-47.25783 36.427911z m-2.953615 24.613453c16.737148-17.721686 33.474297-32.489758 50.211445-43.319678-1.969076 25.597992-9.845381 52.180521-23.628915 78.763051l-30.520682-17.721687c1.969076-6.891767 2.953614-12.798996 3.938152-17.721686z"  horiz-adv-x="1024" />

    
    <glyph glyph-name="icon_ETH" unicode="&#58970;" d=""  horiz-adv-x="1024" />

    
    <glyph glyph-name="icon_FIL" unicode="&#58971;" d="M512 384m-512 0a512 512 0 1 1 1024 0 512 512 0 1 1-1024 0ZM528.384 340.992l118.784-14.336v38.912l-110.592 12.288c4.096 18.432 8.192 36.864 12.288 59.392l110.592-14.336v38.912l-104.448 12.288c2.048 16.384 6.144 32.768 10.24 51.2 22.528 94.208 24.576 86.016 34.816 108.544 38.912 69.632 63.488 43.008 69.632 32.768 6.144-10.24 14.336-40.96 38.912-32.768 24.576 8.192 16.384 36.864 4.096 47.104-10.24 8.192-10.24 18.432-45.056 18.432h-18.432c-55.296-4.096-100.352-75.776-110.592-98.304-16.384-38.912-30.72-77.824-38.912-118.784l-131.072 14.336v-36.864l120.832-14.336c-4.096-18.432-6.144-36.864-10.24-59.392l-122.88 14.336V363.52l114.688-14.336c-6.144-34.816-16.384-75.776-28.672-124.928-32.768-114.688-51.2-114.688-63.488-114.688-14.336 0-28.672 6.144-43.008 14.336-12.288 8.192-6.144 30.72-43.008 26.624-14.336-20.48-4.096-32.768 12.288-47.104 16.384-16.384 43.008-10.24 73.728-10.24 32.768-2.048 120.832 75.776 149.504 247.808"  horiz-adv-x="1024" />

    
    <glyph glyph-name="icon_gouxuan1" unicode="&#58972;" d=""  horiz-adv-x="1024" />

    
    <glyph glyph-name="icon_gouxuan" unicode="&#58957;" d=""  horiz-adv-x="1024" />

    
    <glyph glyph-name="erweima" unicode="&#58958;" d="M555.885714 896v-468.114286H1024V896H555.885714z m375.466667-375.466667H648.533333V803.352381h280.380953v-282.819048zM185.295238 710.704762h92.647619v-92.647619H185.295238zM0-128h468.114286V340.114286H0V-128z m92.647619 375.466667h280.380952v-280.380953H92.647619V247.466667zM185.295238 152.380952h92.647619v-92.647619H185.295238zM931.352381 247.466667h-92.647619v92.647619H555.885714V-128h92.647619V152.380952h92.647619v-92.647619H1024V340.114286h-92.647619v-92.647619zM743.619048 710.704762h92.647619v-92.647619h-92.647619zM0 427.885714h468.114286V896H0v-468.114286zM92.647619 803.352381h280.380952v-280.380952H92.647619V803.352381zM931.352381-128H1024v92.647619h-92.647619V-128zM743.619048-128h92.647619v92.647619h-92.647619V-128z"  horiz-adv-x="1024" />

    
    <glyph glyph-name="PoC-011" unicode="&#58953;" d="M0 384c0-283.733333 228.266667-512 512-512s512 228.266667 512 512S795.733333 896 512 896 0 667.733333 0 384zM718.933333 669.866667c10.666667-10.666667 19.2-40.533333-4.266666-46.933334-25.6-8.533333-32 21.333333-38.4 32s-29.866667 36.266667-70.4-32c-10.666667-23.466667-12.8-14.933333-34.133334-108.8-4.266667-17.066667-6.4-34.133333-8.533333-51.2l104.533333-12.8v-38.4L554.666667 426.666667c-4.266667-21.333333-8.533333-40.533333-10.666667-59.733334l110.933333-12.8v-38.4l-117.333333 14.933334v-2.133334c-27.733333-170.666667-117.333333-249.6-147.2-249.6-32 0-57.6-4.266667-74.666667 10.666667-17.066667 14.933333-27.733333 27.733333-10.666666 46.933333 36.266667 4.266667 32-19.2 42.666666-27.733333 12.8-8.533333 27.733333-12.8 42.666667-12.8 10.666667 0 29.866667 0 61.866667 115.2 12.8 49.066667 21.333333 89.6 27.733333 125.866667l-115.2 14.933333v36.266667l121.6-14.933334c4.266667 21.333333 8.533333 40.533333 10.666667 59.733334l-121.6 14.933333v36.266667l128-14.933334c8.533333 40.533333 21.333333 81.066667 38.4 117.333334 10.666667 23.466667 55.466667 96 110.933333 98.133333s53.333333-4.266667 66.133333-14.933333z"  horiz-adv-x="1024" />

    
    <glyph glyph-name="PoW" unicode="&#58952;" d="M552.96 240.64c-11.264 0-20.48 9.216-20.48 20.48v81.92c0 11.264 9.216 20.48 20.48 20.48h81.92c11.264 0 20.48-9.216 20.48-20.48v-81.92c0-11.264-9.216-20.48-20.48-20.48h-81.92z m-163.84 0c-11.264 0-20.48 9.216-20.48 20.48v81.92c0 11.264 9.216 20.48 20.48 20.48h81.92c11.264 0 20.48-9.216 20.48-20.48v-81.92c0-11.264-9.216-20.48-20.48-20.48h-81.92z m163.84 163.84c-11.264 0-20.48 9.216-20.48 20.48v81.92c0 11.264 9.216 20.48 20.48 20.48h81.92c11.264 0 20.48-9.216 20.48-20.48v-81.92c0-11.264-9.216-20.48-20.48-20.48h-81.92z m-163.84 0c-11.264 0-20.48 9.216-20.48 20.48v81.92c0 11.264 9.216 20.48 20.48 20.48h81.92c11.264 0 20.48-9.216 20.48-20.48v-81.92c0-11.264-9.216-20.48-20.48-20.48h-81.92zM952.5248 435.2c11.264 0 20.48 9.216 20.48 20.48s-9.216 20.48-20.48 20.48H880.64v102.4h71.8848c11.264 0 20.48 9.216 20.48 20.48s-9.216 20.48-20.48 20.48H880.64V670.72c0 45.2608-36.6592 81.92-81.92 81.92h-51.2V824.5248c0 11.264-9.216 20.48-20.48 20.48s-20.48-9.216-20.48-20.48V752.64h-102.4V824.5248c0 11.264-9.216 20.48-20.48 20.48s-20.48-9.216-20.48-20.48V752.64h-102.4V824.5248c0 11.264-9.216 20.48-20.48 20.48s-20.48-9.216-20.48-20.48V752.64h-102.4V824.5248c0 11.264-9.216 20.48-20.48 20.48s-20.48-9.216-20.48-20.48V752.64H225.28c-45.2608 0-81.92-36.6592-81.92-81.92v-51.2H71.4752c-11.264 0-20.48-9.216-20.48-20.48s9.216-20.48 20.48-20.48H143.36v-102.4H71.4752c-11.264 0-20.48-9.216-20.48-20.48s9.216-20.48 20.48-20.48H143.36v-102.4H71.4752c-11.264 0-20.48-9.216-20.48-20.48s9.216-20.48 20.48-20.48H143.36v-102.4H71.4752c-11.264 0-20.48-9.216-20.48-20.48s9.216-20.48 20.48-20.48H143.36V97.28c0-45.2608 36.6592-81.92 81.92-81.92h51.2v-71.8848c0-11.264 9.216-20.48 20.48-20.48s20.48 9.216 20.48 20.48V15.36h102.4v-71.8848c0-11.264 9.216-20.48 20.48-20.48s20.48 9.216 20.48 20.48V15.36h102.4v-71.8848c0-11.264 9.216-20.48 20.48-20.48s20.48 9.216 20.48 20.48V15.36h102.4v-71.8848c0-11.264 9.216-20.48 20.48-20.48s20.48 9.216 20.48 20.48V15.36H798.72c45.2608 0 81.92 36.6592 81.92 81.92v51.2h71.8848c11.264 0 20.48 9.216 20.48 20.48s-9.216 20.48-20.48 20.48H880.64v102.4h71.8848c11.264 0 20.48 9.216 20.48 20.48s-9.216 20.48-20.48 20.48H880.64v102.4h71.8848zM225.28 97.28V670.72h573.44v-573.44H225.28z"  horiz-adv-x="1024" />

    
    <glyph glyph-name="PoC-01" unicode="&#58950;" d="M182.857143 757.028571h51.2v-51.2H182.857143zM182.857143 215.771429h51.2V164.571429H182.857143zM789.942857 757.028571h51.2v-51.2h-51.2zM789.942857 215.771429h51.2V164.571429h-51.2zM867.961905 896H151.161905C95.085714 896 48.761905 849.67619 48.761905 793.6v-819.2C48.761905-81.67619 95.085714-128 151.161905-128h716.8c56.07619 0 102.4 46.32381 102.4 102.4V793.6c0 56.07619-46.32381 102.4-102.4 102.4zM151.161905 793.6h716.8v-665.6H151.161905V793.6z m0-819.2v102.4h716.8v-102.4H151.161905zM509.561905 447.390476m-204.8 0a204.8 204.8 0 1 1 409.6 0 204.8 204.8 0 1 1-409.6 0ZM509.561905 423.009524c-7.314286 0-12.190476 2.438095-17.066667 7.314286-9.752381 9.752381-9.752381 24.380952 0 34.133333l199.92381 199.923809c9.752381 9.752381 24.380952 9.752381 34.133333 0s9.752381-24.380952 0-34.133333l-199.92381-199.923809c-4.87619-4.87619-9.752381-7.314286-17.066666-7.314286z"  horiz-adv-x="1024" />

    
    <glyph glyph-name="PoS-01" unicode="&#58951;" d="M916.48 896H107.52C48.64 896 0 847.36 0 788.48v-808.96C0-79.36 48.64-128 107.52-128h808.96c58.88 0 107.52 48.64 107.52 107.52V788.48C1024 847.36 975.36 896 916.48 896zM107.52-20.48V788.48h808.96v-808.96H107.52zM780.8 727.04h-537.6c-40.96 0-74.24-33.28-74.24-74.24v-79.36c-7.68-5.12-10.24-12.8-10.24-20.48v-43.52c0-7.68 5.12-15.36 10.24-20.48V281.6c-7.68-5.12-10.24-12.8-10.24-20.48v-43.52c0-7.68 5.12-15.36 10.24-20.48v-79.36c0-40.96 33.28-74.24 74.24-74.24h540.16c40.96 0 74.24 33.28 74.24 74.24v537.6c-2.56 38.4-35.84 71.68-76.8 71.68z m33.28-611.84c0-17.92-15.36-33.28-33.28-33.28h-537.6c-17.92 0-33.28 15.36-33.28 33.28v79.36c7.68 5.12 10.24 12.8 10.24 20.48v43.52c0 7.68-5.12 15.36-10.24 20.48V486.4c7.68 5.12 10.24 12.8 10.24 20.48v43.52c0 7.68-5.12 15.36-10.24 20.48V652.8c0 17.92 15.36 33.28 33.28 33.28h540.16c17.92 0 33.28-15.36 33.28-33.28v-537.6h-2.56zM512 384m-189.44 0a189.44 189.44 0 1 1 378.88 0 189.44 189.44 0 1 1-378.88 0ZM496.64 522.24h-25.6v-40.96h-51.2v-28.16h15.36c7.68 0 12.8-5.12 15.36-10.24v-115.2c0-5.12-5.12-7.68-10.24-7.68h-17.92l-5.12-30.72h53.76v-40.96h25.6v40.96h20.48v-40.96h25.6v40.96c7.68 0 15.36 0 25.6 2.56 7.68 0 12.8 2.56 20.48 5.12 5.12 2.56 12.8 5.12 15.36 10.24 5.12 5.12 7.68 10.24 10.24 15.36 2.56 7.68 5.12 12.8 5.12 20.48 2.56 12.8 0 25.6-7.68 35.84-7.68 7.68-17.92 15.36-30.72 17.92 15.36 7.68 25.6 25.6 23.04 43.52 0 7.68-2.56 12.8-5.12 17.92s-7.68 10.24-12.8 12.8-12.8 5.12-17.92 7.68c-7.68 2.56-15.36 2.56-23.04 2.56v43.52h-25.6v-40.96h-20.48l-2.56 38.4z m17.92-145.92h12.8c5.12 0 7.68 0 12.8-2.56 2.56 0 7.68-2.56 10.24-2.56s7.68-2.56 10.24-5.12 5.12-5.12 5.12-7.68c2.56-5.12 2.56-12.8 0-17.92 0-2.56-2.56-5.12-5.12-7.68-2.56-2.56-5.12-2.56-7.68-5.12-2.56-2.56-5.12-2.56-7.68-2.56-2.56 0-5.12-2.56-10.24-2.56-7.68 0-12.8-2.56-20.48-2.56H491.52v56.32h7.68c10.24-2.56 12.8 0 15.36 0z m-2.56 74.24h10.24c2.56 0 7.68 0 10.24-2.56 2.56 0 5.12-2.56 10.24-2.56 2.56 0 5.12-2.56 7.68-5.12 2.56-2.56 2.56-5.12 5.12-7.68 2.56-2.56 2.56-5.12 2.56-10.24 0-2.56 0-5.12-2.56-7.68 0-2.56-2.56-5.12-5.12-7.68-2.56-2.56-5.12-2.56-5.12-5.12-2.56-2.56-5.12-2.56-7.68-2.56-2.56 0-5.12-2.56-7.68-2.56h-30.72v51.2c2.56 2.56 7.68 2.56 12.8 2.56z"  horiz-adv-x="1024" />

    
    <glyph glyph-name="wodedingdan_PoS" unicode="&#58945;" d="M322.56 631.466667m-187.733333 0a187.733333 187.733333 0 1 1 375.466666 0 187.733333 187.733333 0 1 1-375.466666 0ZM134.826667 443.733333h375.466666-375.466666zM858.453333 394.24c8.533333-8.533333 18.773333-13.653333 29.013334-13.653333h1.706666c10.24 0 20.48 3.413333 29.013334 11.946666l37.546666 34.133334c17.066667 15.36 18.773333 42.666667 1.706667 59.733333L658.773333 812.373333c-15.36 17.066667-42.666667 18.773333-59.733333 1.706667l-37.546667-34.133333c-17.066667-15.36-18.773333-42.666667-1.706666-59.733334l51.2-56.32-163.84-150.186666-83.626667 90.453333c-8.533333 8.533333-18.773333 13.653333-29.013333 13.653333-11.946667 0-22.186667-3.413333-30.72-11.946666L90.453333 411.306667c-8.533333-6.826667-11.946667-17.066667-13.653333-27.306667L52.906667 102.4c-1.706667-11.946667 3.413333-23.893333 11.946666-32.426667l105.813334-114.346666c8.533333-8.533333 18.773333-13.653333 30.72-13.653334h728.746666v51.2H556.373333l168.96 155.306667c8.533333 8.533333 13.653333 18.773333 13.653334 29.013333 0 11.946667-3.413333 22.186667-11.946667 30.72L643.413333 298.666667l163.84 150.186666 51.2-54.613333z m-256 354.986667l25.6 23.893333 288.426667-314.026667-25.6-23.893333-46.08 49.493333-187.733333 204.8-54.613334 59.733334z m81.92-568.32l-203.093333-187.733334H204.8l-100.693333 109.226667 23.893333 274.773333 203.093333 187.733334 353.28-384z m-75.093333 157.013333l-63.146667 68.266667-63.146666 68.266666 163.84 150.186667 126.293333-138.24-163.84-148.48zM151.261867 103.697067l150.7328 138.6496 57.770666-62.805334-150.7328-138.6496z"  horiz-adv-x="1024" />

    
    <glyph glyph-name="gudingshouyi-01" unicode="&#58948;" d="M315.733333-69.973333h-136.533333c-23.893333 0-42.666667 18.773333-42.666667 42.666666v375.466667c0 23.893333 18.773333 42.666667 42.666667 42.666667h136.533333c23.893333 0 42.666667-18.773333 42.666667-42.666667v-375.466667c0-23.893333-20.48-42.666667-42.666667-42.666666z m-128 51.2h119.466667v358.4h-119.466667v-358.4zM844.8-69.973333h-136.533333c-23.893333 0-42.666667 18.773333-42.666667 42.666666v477.866667c0 23.893333 18.773333 42.666667 42.666667 42.666667h136.533333c23.893333 0 42.666667-18.773333 42.666667-42.666667v-477.866667c0-23.893333-18.773333-42.666667-42.666667-42.666666z m-128 51.2h119.466667v460.8h-119.466667v-460.8zM580.266667-69.973333h-136.533334c-23.893333 0-42.666667 18.773333-42.666666 42.666666v307.2c0 23.893333 18.773333 42.666667 42.666666 42.666667h136.533334c23.893333 0 42.666667-18.773333 42.666666-42.666667v-307.2c0-23.893333-18.773333-42.666667-42.666666-42.666666z m-128 51.2h119.466666v290.133333h-119.466666v-290.133333zM197.973333 426.666667l-30.72 40.96 240.64 186.026666 92.16-100.693333 175.786667 146.773333 32.426667-39.253333L494.933333 482.986667l-92.16 100.693333zM824.32 812.373333l-54.613333-215.04-158.72 158.72 213.333333 56.32"  horiz-adv-x="1024" />

    
    <glyph glyph-name="jisuanqi" unicode="&#58947;" d="M938.246414-29.586239v827.153292a109.320672 109.320672 0 0 1-117.677479 98.064565H203.18854a109.576493 109.576493 0 0 1-117.677479-98.064565v-827.153292a109.576493 109.576493 0 0 1 117.677479-98.064566h617.806763a109.150125 109.150125 0 0 1 117.251111 98.064566zM193.808451 721.247239c-0.426368 34.109414 27.287531 62.249681 61.396946 62.24968h512.920314c34.109414-0.426368 61.823313-28.140267 61.396946-62.24968v-119.809317c0.426368-34.109414-27.287531-62.249681-61.396946-62.249681H255.205397c-34.109414 0-61.823313 28.140267-61.396946 62.249681v119.809317z m636.140573-320.202125v-41.784033c0-8.527354-6.821883-15.349236-15.349236-15.775604h-69.071564c-8.527354 0-15.349236 7.24825-15.349236 15.775604v41.784033c0 8.527354 6.821883 15.349236 15.349236 15.775604h69.071564c8.527354-0.426368 15.349236-7.24825 15.349236-15.775604z m-535.944169-393.110998c0-8.527354-6.821883-15.775604-15.349236-15.775604h-69.071564c-8.527354 0-15.349236 7.24825-15.349236 15.775604v41.784032c0 8.527354 6.821883 15.349236 15.349236 15.775605h69.071564c8.527354 0 15.349236-7.24825 15.349236-15.775605v-41.784032z m0 175.663483c0-8.527354-6.821883-15.775604-15.349236-15.775604h-69.071564c-8.527354 0-15.349236 7.24825-15.349236 15.775604v41.784032c0 8.527354 6.821883 15.349236 15.349236 15.775604h69.071564c8.527354 0 15.349236-7.24825 15.349236-15.775604v-41.784032z m0 175.663482c0-8.527354-6.821883-15.775604-15.349236-15.775604h-69.071564c-8.527354 0-15.349236 7.24825-15.349236 15.775604v41.784033c0 8.527354 6.821883 15.349236 15.349236 15.775604h69.071564c8.527354 0 15.349236-7.24825 15.349236-15.775604v-41.784033z m178.648056-351.326965c0-8.527354-6.821883-15.349236-15.349236-15.775604h-69.071563c-8.527354 0-15.349236 7.24825-15.349237 15.775604v41.784032c0 8.527354 6.821883 15.349236 15.349237 15.775605h69.071563c8.527354 0 15.349236-7.24825 15.349236-15.775605v-41.784032z m0 175.663483c0-8.527354-6.821883-15.349236-15.349236-15.775604h-69.071563c-8.527354 0-15.349236 7.24825-15.349237 15.775604v41.784032c0 8.527354 6.821883 15.349236 15.349237 15.775604h69.071563c8.527354 0 15.349236-7.24825 15.349236-15.775604v-41.784032z m0 175.663482c0-8.527354-6.821883-15.349236-15.349236-15.775604h-69.071563c-8.527354 0-15.349236 7.24825-15.349237 15.775604v41.784033c0 8.527354 6.821883 15.349236 15.349237 15.775604h69.071563c8.527354 0 15.349236-7.24825 15.349236-15.775604v-41.784033z m178.648057-351.326965c0-8.527354-6.821883-15.349236-15.349237-15.775604h-69.071563c-8.527354 0-15.349236 7.24825-15.349236 15.775604v41.784032c0 8.527354 6.821883 15.775604 15.349236 15.775605h69.071563c8.527354 0 15.349236-7.24825 15.349237-15.775605v-41.784032z m0 175.663483c0-8.527354-6.821883-15.349236-15.349237-15.775604h-69.071563c-8.527354 0-15.349236 7.24825-15.349236 15.775604v41.784032c0 8.527354 6.821883 15.775604 15.349236 15.775604h69.071563c8.527354 0 15.349236-7.24825 15.349237-15.775604v-41.784032z m0 175.663482c0-8.527354-6.821883-15.349236-15.349237-15.775604h-69.071563c-8.527354 0-15.349236 7.24825-15.349236 15.775604v41.784033c0 8.527354 6.821883 15.775604 15.349236 15.775604h69.071563c8.527354 0 15.349236-7.24825 15.349237-15.775604v-41.784033z m178.648056-351.326965c0-8.527354-6.821883-15.775604-15.349236-15.775604h-69.071564c-8.527354 0-15.349236 7.24825-15.349236 15.775604v41.784032c0 8.527354 6.821883 15.349236 15.349236 15.775605h69.071564c8.527354 0 15.349236-7.24825 15.349236-15.775605v-41.784032z m0 175.663483c0-8.527354-6.821883-15.775604-15.349236-15.775604h-69.071564c-8.527354 0-15.349236 7.24825-15.349236 15.775604v41.784032c0 8.527354 6.821883 15.349236 15.349236 15.775604h69.071564c8.527354 0 15.349236-7.24825 15.349236-15.775604v-41.784032z"  horiz-adv-x="1024" />

    
    <glyph glyph-name="wodedingdan_PoS-04" unicode="&#58949;" d="M597.333333 384m-102.4 0a102.4 102.4 0 1 1 204.8 0 102.4 102.4 0 1 1-204.8 0ZM870.4 802.133333H153.6C121.173333 802.133333 93.866667 774.826667 93.866667 742.4v-716.8c0-32.426667 27.306667-59.733333 59.733333-59.733333h716.8c32.426667 0 59.733333 27.306667 59.733333 59.733333V742.4c0 32.426667-27.306667 59.733333-59.733333 59.733333z m8.533333-776.533333c0-5.12-3.413333-8.533333-8.533333-8.533333H153.6c-5.12 0-8.533333 3.413333-8.533333 8.533333V742.4c0 5.12 3.413333 8.533333 8.533333 8.533333h716.8c5.12 0 8.533333-3.413333 8.533333-8.533333v-716.8zM754.346667 691.2H269.653333c-32.426667 0-59.733333-27.306667-59.733333-59.733333v-80.213334h-8.533333v-83.626666h8.533333v-167.253334h-8.533333v-83.626666h8.533333V145.066667c0-32.426667 27.306667-59.733333 59.733333-59.733334h486.4c32.426667 0 59.733333 27.306667 59.733334 59.733334V631.466667c-1.706667 32.426667-27.306667 59.733333-61.44 59.733333z m8.533333-546.133333c0-5.12-3.413333-8.533333-8.533333-8.533334H269.653333c-5.12 0-8.533333 3.413333-8.533333 8.533334v71.68h8.533333v83.626666h-8.533333v167.253334h8.533333v83.626666h-8.533333v80.213334c0 5.12 3.413333 8.533333 8.533333 8.533333h486.4c5.12 0 8.533333-3.413333 8.533334-8.533333V145.066667zM341.333333 520.533333h85.333334v-273.066666h-85.333334z"  horiz-adv-x="1024" />

    
    <glyph glyph-name="wodedingdan_shezhivfuben" unicode="&#58946;" d="M512-99.328c55.296 0 100.352 45.056 100.352 101.034667H411.648c0-55.978667 45.056-101.034667 100.352-101.034667zM982.357333 115.029333L877.909333 240.64V424.96c0 238.933333-144.042667 341.333333-295.594666 360.448v22.528c-1.365333 38.912-34.133333 69.632-73.045334 68.266667-37.546667-1.365333-67.584-31.402667-68.266666-68.266667v-22.528C290.133333 766.293333 146.090667 664.576 146.090667 424.96v-185.002667L41.642667 114.346667c-11.605333-13.653333-9.557333-34.816 4.096-46.421334 6.144-4.778667 13.653333-7.509333 21.162666-7.509333h889.514667c18.432 0 32.768 14.336 32.768 32.768a31.061333 31.061333 0 0 1-6.826667 21.845333z"  horiz-adv-x="1024" />

    
    <glyph glyph-name="zhexian-02" unicode="&#58942;" d="M147.968 807.424H56.832v-819.2h910.336v91.136h-819.2zM491.008 531.968l201.216-216.576L998.4 552.96l-62.464 80.896-232.448-180.224L496.64 676.352 193.536 397.824l69.12-75.264z"  horiz-adv-x="1024" />

    
    <glyph glyph-name="wodedingdan_fenxiang" unicode="&#58935;" d="M1008.395228 889.856385c12.28723-8.191487 18.430845-22.526588 15.017725-36.179066l-146.081512-877.854321c-2.047872-10.921982-8.874111-20.478717-18.430845-25.939708-5.460991-2.730496-11.604606-4.778367-17.748221-4.778367-4.778367 0-9.556734 1.365248-13.652478 2.730495l-258.714454 105.806703-138.572649-168.6081c-6.826239-8.874111-17.065597-13.652478-27.987579-12.969854-4.095743 0-8.874111 0.682624-12.969854 2.047871a36.86169 36.86169 0 0 0-23.891836 34.131195v199.326175l493.537071 604.804766-610.94838-529.033514-225.265884 92.836849A35.496442 35.496442 0 0 0 0.159744 308.260832c-1.365248 13.652478 6.143615 27.304956 18.430845 34.131194L969.485666 890.539009c5.460991 3.413119 11.604606 5.460991 17.748221 5.460991 7.508863 0 15.017726-2.047872 21.161341-6.143615z"  horiz-adv-x="1024" />

    
    <glyph glyph-name="wodedingdan_shezhiv" unicode="&#58936;" d="M512 510.293333a121.582933 121.582933 0 1 1 0-243.029333c66.901333 0 121.514667 54.613333 121.514667 121.514667S579.584 510.293333 512 510.293333zM978.261333 288.426667a24.576 24.576 0 0 1-10.24 5.461333l-94.208 59.392V424.277333l94.890667 59.392c13.653333 9.557333 18.432 26.624 11.605333 41.642667l-118.784 207.530667a33.3824 33.3824 0 0 1-41.642666 11.605333l-94.890667-59.392c-19.797333 15.018667-41.642667 27.306667-64.853333 35.498667V833.194667a28.740267 28.740267 0 0 1-26.624 30.037333H393.898667a28.330667 28.330667 0 0 1-30.037334-26.624v-116.053333c-22.528-10.922667-44.373333-22.528-64.853333-35.498667l-94.890667 59.392a31.744 31.744 0 0 1-41.642666-12.288L43.690667 525.312c-8.874667-10.922667-8.192-26.624 2.048-36.181333 2.730667-2.730667 6.144-4.778667 10.24-5.461334l94.890666-59.392v-70.997333l-94.890666-59.392c-13.653333-4.096-21.162667-17.749333-17.749334-31.402667 1.365333-3.413333 2.730667-6.826667 5.461334-10.24l118.784-207.530666c8.192-12.970667 25.258667-16.384 38.229333-8.192 1.365333 0.682667 2.048 1.365333 3.413333 2.730666l94.890667 59.392c19.797333-15.018667 41.642667-27.306667 64.853333-35.498666v-118.784c-0.682667-15.701333 10.922667-28.672 25.941334-29.354667h240.298666c15.701333-0.682667 28.672 10.922667 29.354667 25.941333v116.053334c22.528 10.922667 44.373333 22.528 64.853333 35.498666l94.890667-59.392c15.018667-7.509333 32.768-2.730667 41.642667 11.605334l118.784 207.530666c10.24 10.922667 8.874667 26.624-1.365334 36.181334zM518.826667 206.506667h-6.826667a182.272 182.272 0 1 0 182.272 182.272A178.176 178.176 0 0 0 518.826667 206.506667z"  horiz-adv-x="1024" />

    
    <glyph glyph-name="wodedingdan_anquan" unicode="&#58937;" d="M942.08 666.624c-2.048 30.037333-21.845333 55.296-50.517333 64.170667L533.162667 839.338667 527.701333 840.704C515.413333 843.434667 503.125333 842.752 491.52 839.338667L132.437333 730.794667l-4.096-1.365334c-27.989333-10.922667-47.104-37.546667-47.104-67.584v-399.36c4.096-175.445333 148.138667-299.690667 421.205334-374.101333l9.557333-2.730667 21.162667 6.144c269.653333 75.776 409.6 201.386667 409.6 378.197334V661.845333l-0.682667 4.778667zM475.818667 254.976L331.093333 399.701333l50.517334 50.517334L475.818667 356.693333 641.706667 522.581333l50.517333-50.517333-216.405333-217.088z"  horiz-adv-x="1024" />

    
    <glyph glyph-name="wodedingdan_wodedingdan" unicode="&#58938;" d="M512 640m-256 0a256 256 0 1 1 512 0 256 256 0 1 1-512 0ZM1023.276836-1.446328c-0.723164 5.062147-0.723164 11.570621-1.446328 17.355933-1.446328 18.80226-3.615819 36.881356-6.508474 54.237288-2.892655 26.757062-9.40113 52.79096-18.80226 77.378531-36.158192 77.378531-299.389831 190.19209-484.519774 190.19209S63.638418 225.627119 27.480226 147.525424c-9.40113-24.587571-15.909605-50.621469-18.80226-77.378531-2.169492-17.355932-5.062147-35.435028-6.508474-54.237288-0.723164-6.508475-1.446328-12.293785-1.446328-17.355933-0.723164-2.892655-0.723164-5.785311-0.723164-6.508474v-3.615819c0-64.361582 52.067797-116.429379 116.429379-116.429379h791.141242c64.361582 0 116.429379 52.067797 116.429379 116.429379v3.615819c0 1.446328-0.723164 3.615819-0.723164 6.508474z"  horiz-adv-x="1024" />

    
    <glyph glyph-name="wodedingdan_jiaoyimingxi" unicode="&#58939;" d="M837.648432 896c68.714807-1.4938 123.985412-59.005106 122.491612-127.719912V-0.280088c1.4938-68.714807-53.029905-126.226112-122.491612-127.719912H185.604668C116.889861-126.5062 62.366156-68.994894 63.859956-0.280088V768.280088C62.366156 836.994894 116.889861 894.5062 185.604668 896h652.043764zM756.236324 213.333333H430.587892c-23.900802-0.7469-41.826404-20.913202-41.079504-44.814004 0.7469-22.407002 18.672502-40.332604 41.079504-41.079504h325.648432a43.021444 43.021444 0 1 1 0 85.893508z m-488.472648 0a43.096134 43.096134 0 0 1-44.814004-40.332604c-0.7469-23.900802 17.178702-43.320204 40.332604-44.814004 23.900802-0.7469 43.320204 17.178702 44.814004 40.332604v2.2407c0.7469 22.407002-17.178702 41.826404-40.332604 42.573304z m488.472648 212.866521H430.587892a42.573304 42.573304 0 0 1 0-85.146608h325.648432c23.900802 0.7469 41.826404 20.913202 41.079504 44.814004a42.349234 42.349234 0 0 1-41.079504 40.332604z m-488.472648 0a43.096134 43.096134 0 0 1-44.814004-40.332604c-0.7469-23.900802 17.178702-43.320204 40.332604-44.814004 23.900802-0.7469 43.320204 17.178702 44.814004 40.332604v2.2407a40.706054 40.706054 0 0 1-40.332604 42.573304z m488.472648 213.613421H430.587892c-23.900802-0.7469-41.826404-20.913202-41.079504-44.814004 0.7469-22.407002 18.672502-40.332604 41.079504-41.079504h325.648432c23.900802 0.7469 41.826404 20.913202 41.079504 44.814004a42.498614 42.498614 0 0 1-41.079504 41.079504z m-488.472648 0a43.096134 43.096134 0 0 1-44.814004-40.332604c-0.7469-23.900802 17.178702-43.320204 40.332604-44.814004 23.900802-0.7469 43.320204 17.178702 44.814004 40.332604V597.239971a41.079504 41.079504 0 0 1-40.332604 42.573304z"  horiz-adv-x="1024" />

    
    <glyph glyph-name="wodedingdan_wodezichan" unicode="&#58940;" d="M0 613.517241h1174.068966c34.427586 0 61.793103-27.365517 61.793103-61.793103v-617.931035c0-34.427586-27.365517-61.793103-61.793103-61.793103H61.793103c-34.427586 0-61.793103 27.365517-61.793103 61.793103V613.517241zM61.793103 896h926.896552v-158.896552H0V834.206897C0 868.634483 27.365517 896 61.793103 896z m655.006897-591.448276v-123.586207h271.889655V304.551724H716.8z"  horiz-adv-x="1235" />

    
    <glyph glyph-name="wodedingdan_Guidefuben3" unicode="&#58941;" d="M863.841893-14.236801H198.706388c-5.308949 0-9.859477-4.550528-9.859477-9.859477v-94.044245c0-5.308949 4.550528-9.859477 9.859477-9.859477h663.618662c5.308949 0 9.859477 4.550528 9.859477 9.859477v94.044245a9.859477 9.859477 0 0 1-8.342634 9.859477z m4.550528 910.105594h-674.994982C91.768981 899.6609 5.308949 820.785082 0 719.156624v-442.918056a186.950857 186.950857 0 0 1 193.397439-176.71217h675.753403c101.628458-3.792107 187.330068 75.083711 192.639018 176.71217V719.156624A186.950857 186.950857 0 0 1 868.392421 895.868793zM694.713937 380.900711c-33.370538-33.370538-87.218453-34.12896-120.588992-0.758421l-0.758421 0.758421L436.092264 524.242342a11.528004 11.528004 0 0 1-15.168427 0L227.526398 321.743848l-53.847914 56.123178 193.397439 203.256916c31.853696 33.370538 84.943189 34.887381 119.072148 3.033685l3.033686-3.033685 137.27426-144.100052c4.550528-3.792107 10.617899-3.792107 15.168427 0L834.263461 639.522384l53.847914-56.881599-193.397438-201.740074z"  horiz-adv-x="1061" />

    
    <glyph glyph-name="wodedingdan_Guidefuben2" unicode="&#58932;" d="M512 384m-512 0a512 512 0 1 1 1024 0 512 512 0 1 1-1024 0ZM781.824 524.544L664.32 665.6l-112.384-141.056H640v-267.264h51.2V524.544zM409.6 385.536V652.8h-51.2v-267.264h-87.808L384 242.944l118.784 142.592zM262.912 173.056h512v-51.2h-512z"  horiz-adv-x="1024" />

    
    <glyph glyph-name="wodedingdan_Guidefuben" unicode="&#58933;" d="M512 384m-512 0a512 512 0 1 1 1024 0 512 512 0 1 1-1024 0ZM779.52 270.08L652.8 371.2V281.6H230.4v-51.2h422.4v-65.792zM318.72 512h460.8v-51.2h-460.8zM357.12 601.344L230.4 500.48l126.72-105.472v206.336z"  horiz-adv-x="1024" />

    
    <glyph glyph-name="wodedingdan_Guide" unicode="&#58934;" d="M512 384m-512 0a512 512 0 1 1 1024 0 512 512 0 1 1-1024 0ZM256 614.4h51.2v-460.8h-51.2zM256 204.8h512v-51.2H256zM613.888 342.016l-113.664 122.112-130.56-120.064-34.56 37.632 167.936 154.624 116.48-125.184 132.864 103.168 31.232-40.448z"  horiz-adv-x="1024" />

    


  </font>
</defs>
</svg>
