<?xml version="1.0" standalone="no"?><!DOCTYPE svg PUBLIC "-//W3C//DTD SVG 1.1//EN" "http://www.w3.org/Graphics/SVG/1.1/DTD/svg11.dtd"><svg t="1599477171104" class="icon" viewBox="0 0 1536 1024" version="1.1" xmlns="http://www.w3.org/2000/svg" p-id="4810" xmlns:xlink="http://www.w3.org/1999/xlink" width="300" height="200"><defs><style type="text/css"></style></defs><path d="M0 0h1536v1024H0z" fill="#FFFFFF" p-id="4811"></path><path d="M207.04 288.128L332.32 102.4l26.528 17.92-125.28 185.696-26.528-17.92z m53.056 35.776l125.28-185.696 26.528 17.888-125.28 185.696-26.528-17.888z m53.056 35.776l125.28-185.696 26.528 17.92-125.28 185.696-26.528-17.92zM339.68 646.4l125.28 185.728-26.56 17.888-125.248-185.696 26.56-17.92zM286.624 682.24l53.696 79.584-26.56 17.92-53.664-79.616 26.56-17.92z m71.584 106.112l53.696 79.584-26.56 17.92-53.664-79.616 26.56-17.92zM233.6 717.984l125.28 185.696-26.56 17.92-125.248-185.728 26.56-17.888zM1203.68 102.4l53.696 79.584-26.528 17.92-53.696-79.584 26.56-17.92z m71.584 106.144l53.696 79.584-26.56 17.888-53.664-79.584 26.56-17.92z m-124.64-70.336l125.28 185.696-26.56 17.92-125.248-185.728 26.56-17.92zM1097.6 173.984l53.696 79.584-26.56 17.92-53.664-79.616 26.56-17.888z m71.584 106.112l53.696 79.584-26.56 17.92-53.664-79.584 26.528-17.92zM1071.04 832.128l53.696-79.584 26.528 17.888-53.696 79.584-26.528-17.92z m71.584-106.144l53.696-79.584 26.528 17.92-53.696 79.584-26.528-17.92z m-18.528 141.92l53.696-79.584 26.528 17.92-53.696 79.552-26.528-17.888z m71.584-106.112l53.696-79.584 26.528 17.888-53.696 79.584-26.528-17.92z m-18.528 141.888l53.696-79.584 26.528 17.92-53.696 79.584-26.528-17.92z m71.584-106.112l53.696-79.584 26.528 17.92-53.696 79.552-26.528-17.888z" fill="#000000" p-id="4812"></path><path d="M768 512m-256 0a256 256 0 1 0 512 0 256 256 0 1 0-512 0Z" fill="#E94B35" p-id="4813"></path><path d="M1024 512a256 256 0 1 1-512 0 128 128 0 1 0 256 0 128 128 0 1 1 256 0z" fill="#227FBB" p-id="4814"></path></svg>