<?xml version="1.0" standalone="no"?><!DOCTYPE svg PUBLIC "-//W3C//DTD SVG 1.1//EN" "http://www.w3.org/Graphics/SVG/1.1/DTD/svg11.dtd"><svg t="1599477395905" class="icon" viewBox="0 0 1536 1024" version="1.1" xmlns="http://www.w3.org/2000/svg" p-id="5075" xmlns:xlink="http://www.w3.org/1999/xlink" width="300" height="200"><defs><style type="text/css"></style></defs><path d="M0 0h1536v512H0z" fill="#E94B35" p-id="5076"></path><path d="M0 512h1536v512H0zM405.952 49.088a208 208 0 1 0 0 413.856 224 224 0 1 1 0-413.856z" fill="#FFFFFF" p-id="5077"></path><path d="M434.08 147.2l-28.352 19.648 9.984-32.928-27.52-20.768 34.56-0.672 11.328-32.48 11.36 32.48 34.56 0.672-27.52 20.8 9.984 32.896-28.384-19.648z m-129.792 96l-28.384 19.648 10.016-32.928-27.552-20.768 34.56-0.672 11.36-32.48 11.328 32.48 34.56 0.672-27.52 20.8 9.984 32.896L304.32 243.2z m48 144l-28.384 19.648 10.016-32.928-27.552-20.768 34.56-0.672 11.36-32.48 11.328 32.48 34.56 0.672-27.52 20.8 9.984 32.896-28.352-19.648z m160 0l-28.384 19.648 10.016-32.928-27.552-20.768 34.56-0.672 11.36-32.48 11.328 32.48 34.56 0.672-27.52 20.8 9.984 32.896-28.352-19.648z m48-144l-28.384 19.648 10.016-32.928-27.552-20.768 34.56-0.672 11.36-32.48 11.328 32.48 34.56 0.672-27.52 20.8 9.984 32.896-28.352-19.648z" fill="#FFFFFF" p-id="5078"></path></svg>