<?xml version="1.0" standalone="no"?><!DOCTYPE svg PUBLIC "-//W3C//DTD SVG 1.1//EN" "http://www.w3.org/Graphics/SVG/1.1/DTD/svg11.dtd"><svg t="1599477450568" class="icon" viewBox="0 0 1536 1024" version="1.1" xmlns="http://www.w3.org/2000/svg" p-id="5207" xmlns:xlink="http://www.w3.org/1999/xlink" width="300" height="200"><defs><style type="text/css"></style></defs><path d="M0 0h1536v1024H0z" fill="#E94B35" p-id="5208"></path><path d="M782.72 368.416c39.808-17.472 71.936-89.28 42.496-133.92-26.24-39.84-19.584-82.88 26.432-105.952-218.4-14.592-309.44 268.448-102.176 376.672-27.968-43.616-26.624-110.528 33.28-136.8z m-51.2-51.84l15.264-23.36 28.224 3.232-18.048-21.408 11.904-25.216-26.464 10.208-20.896-18.88 1.76 27.712-24.864 13.568 27.584 6.944 5.504 27.2z m168.32 193.536c28.864 32.416 107.104 40.8 140.48-0.96 29.76-37.344 72.768-44.288 108.928-7.68-53.632-212.16-350.944-211.296-389.824 19.264 32.864-40.064 96.896-59.488 140.416-10.624z m-100.64 152.32c-21.92 37.504-5.696 114.496 44.32 133.312 44.704 16.8 64.608 55.52 40.96 101.248 185.248-116.576 92.48-399.04-138.784-364.8 48.256 18.88 86.528 73.76 53.504 130.24z m-179.264-47.552c-42.432-9.28-110.656 29.952-113.088 83.36-2.176 47.68-32.864 78.592-83.648 70.208 168.128 140.16 408.128-35.328 304.064-244.704-3.04 51.744-43.424 105.056-107.328 91.136z m-10.176-181.728c-4.288-43.2-62.688-95.968-114.24-81.76-46.016 12.672-84.864-6.976-92.608-57.856-81.344 203.2 159.712 377.216 326.72 213.536-50.176 13.12-113.376-8.8-119.872-73.92z m324.064 12.288l26.976 7.296 5.632 27.872 14.784-23.808 27.648 3.52-17.888-22.016 11.52-25.664-25.824 10.208-20.576-19.424 1.92 28.352-24.192 13.664z m-62.4 228.8l1.408 27.936-24.736 13.984 27.2 6.72 5.184 27.36 15.424-23.808 27.968 3.008-17.696-21.376 12.16-25.6-26.4 10.56-20.48-18.752z m-240.832 12.608l-26.112 9.952-20.928-19.2 2.016 27.936-24.416 13.376 27.392 7.328 5.76 27.52 14.912-23.424 28.064 3.616-18.24-21.824 11.552-25.28z m-86.496-221.056l-17.536-21.76 11.84-25.856-25.952 10.56-20.288-19.072 1.504 28.32-24.384 14.016 26.88 6.912 5.216 27.808 15.136-24.064 27.584 3.136z" fill="#FFFFFF" p-id="5209"></path></svg>